# xmcd CD database file
#
# Track frame offsets:
#	183
#	17225
#	34608
#	54288
#	73528
#	87378
#	107733
#	133340
#	148788
#	163218
#	177220
#	190663
#	206473
#	220930
#	238783
#	251180
#	267815
#	280393
#
# Disc length: 3919 seconds
#
# Revision: 0
# Processed by: cddbd v1.4PL0 Copyright (c) Steve Scherf et al.
# Submitted via: CDex 1.50
#
DISCID=120f4d12
DTITLE=Billie Holiday - Billie Holiday (Polygram Jazz)
DYEAR=1900
DGENRE=Jazz
TTITLE0=Lady Sings The Blues
TTITLE1=Moonlight In Vermont
TTITLE2=Come Rain Or Come Shine
TTITLE3=Do Nothing Till You Hear From Me
TTITLE4=April In Paris
TTITLE5=Stars Fell On Alabama
TTITLE6=One For My Baby
TTITLE7=All The Way
TTITLE8=Don't Worry About Me
TTITLE9=Strange Fruit
TTITLE10=Softly
TTITLE11=Stormy Blues
TTITLE12=Travelin' Light
TTITLE13=I Don't Want To Cry Anymore
TTITLE14=Body and Soul
TTITLE15=Stormy Weather
TTITLE16=I Wished On The Moon
TTITLE17=Love Man (Oh Where Can You Be)
EXTD=
EXTT0=
EXTT1=
EXTT2=
EXTT3=
EXTT4=
EXTT5=
EXTT6=
EXTT7=
EXTT8=
EXTT9=
EXTT10=
EXTT11=
EXTT12=
EXTT13=
EXTT14=
EXTT15=
EXTT16=
EXTT17=
PLAYORDER=
